<?xml version="1.0" encoding="UTF-8"?>
<svg width="165.55" height="165.55" version="1.1" viewBox="0 0 165.55 165.55" xml:space="preserve" xmlns="http://www.w3.org/2000/svg"><g transform="matrix(1.3333 0 0 -1.3333 0 165.55)"><g transform="scale(.1)"><path d="m1241.6 620.78c0 342.85-277.94 620.79-620.79 620.79-342.85 0-620.79-277.94-620.79-620.79 0-342.85 277.94-620.79 620.79-620.79 342.85 0 620.79 277.95 620.79 620.79" fill="#fff"/><g fill="#231f20"><path d="m1046.6 692.08c-13.24 0-23.44 10.266-23.44 24.027 0 13.754 10.2 24.004 23.44 24.004 13.26 0 23.44-10.25 23.44-24.004 0-13.761-10.18-24.027-23.44-24.027zm0 54.047c-16.48 0-29.84-13.438-29.84-30.02 0-16.597 13.36-30.027 29.84-30.027 16.5 0 29.84 13.43 29.84 30.027 0 16.582-13.34 30.02-29.84 30.02"/><path d="m1047.9 718.4h-5.76v8.262h5.76c2.68 0 4.44-1.715 4.44-4.129 0-2.418-1.76-4.133-4.44-4.133zm4.84-4.086c3.02 1.098 5.71 3.825 5.71 8.219 0 5.227-3.78 9.578-10.16 9.578h-10.59c-0.92 0-1.66-0.746-1.66-1.664v-27.961c0-0.914 0.75-1.664 1.66-1.664h2.78c0.92 0 1.66 0.75 1.66 1.664v10.817h4.41l5.6-11.375c0.37-0.754 0.75-1.106 1.61-1.106h4.3c0.92 0 1.32 0.668 0.9 1.481l-6.22 12.011"/><path d="m995.97 746.12h-38.438c-4.129 0-7.468-3.348-7.468-7.48v-94.989h-85.977v94.989c0 4.132-3.352 7.48-7.481 7.48h-38.437c-4.133 0-7.473-3.348-7.473-7.48v-234.48c0-4.129 3.34-7.48 7.473-7.48h38.437c4.129 0 7.481 3.351 7.481 7.48v91.375h85.977v-91.375c0-4.129 3.339-7.48 7.468-7.48h38.438c4.131 0 7.471 3.351 7.471 7.48v234.48c0 4.132-3.34 7.48-7.471 7.48"/><path d="m778.36 746.12h-169.47c-4.125 0-7.465-3.348-7.465-7.48v-33.094c0-4.133 3.34-7.481 7.465-7.481h58.089v-193.9c0-4.129 3.352-7.48 7.481-7.48h38.449c4.121 0 7.469 3.351 7.469 7.48v193.9h57.98c4.129 0 7.481 3.348 7.481 7.481v33.094c0 4.132-3.352 7.48-7.481 7.48"/><path d="m363.4 643.66h-71.867v54.41s97.711-0.039 97.903-0.039c4.132 0 7.472 3.356 7.472 7.485v33.129c0 4.136-3.34 7.48-7.472 7.48h-143.84c-4.125 0-7.461-3.344-7.461-7.48v-234.48c0-4.129 3.336-7.48 7.461-7.48h38.469c4.125 0 7.468 3.351 7.468 7.48v91.367h71.867c4.129 0 7.473 3.352 7.473 7.492v33.153c0 4.133-3.344 7.48-7.473 7.48"/><path d="m495.86 675.6c1.528 4.328 3.227 11.164 3.227 11.164s1.703-6.836 3.227-11.164c1.527-4.336 26.835-80.071 26.835-80.071h-60.125s25.305 75.735 26.836 80.071zm-111.17-178.61c0.504-0.195 1.016-0.281 1.539-0.301v-0.011h41.758c3.129 0 5.793 1.933 6.875 4.679l16.649 47.852h95.148l16.649-47.852c1.078-2.746 3.75-4.679 6.879-4.679h41.753v0.011c0.528 0.02 1.039 0.106 1.539 0.301 2.958 1.164 4.196 5.215 2.758 9.055l0.012 8e-3 -86.227 234.31c-1.226 3.109-4.453 5.758-8.14 5.758h-45.598c-3.683 0-6.906-2.649-8.137-5.758l-86.226-234.31 0.012-8e-3c-1.438-3.84-0.204-7.891 2.757-9.055"/></g></g></g></svg>
